<?xml version="1.0" encoding="utf-8"?>
<!-- Generator: Adobe Illustrator 14.0.0, SVG Export Plug-In . SVG Version: 6.00 Build 43363)  -->
<!DOCTYPE svg PUBLIC "-//W3C//DTD SVG 1.1//EN" "http://www.w3.org/Graphics/SVG/1.1/DTD/svg11.dtd">
<svg version="1.1" id="Layer_1" xmlns="http://www.w3.org/2000/svg" xmlns:xlink="http://www.w3.org/1999/xlink" x="0px" y="0px"
	 width="504px" height="504px" viewBox="0 0 504 504" enable-background="new 0 0 504 504" xml:space="preserve">
<g id="UPkIXj_1_">
	<g>
		<g>
			<path fill-rule="evenodd" clip-rule="evenodd" d="M296.229,153.343c5.709-4.976,17.893-12.306,29.828-12
				c10.121,0.26,11.572,9.868,9.258,20.229c-5.801-1.24-12.861-5.281-20.572-3.771c-4.666,0.913-7.861,3.646-11.656,5.143
				c13.578,18.426,15.934,52.599,4.457,75.429c-2.141,4.257-4.727,8.62-7.887,13.028c-3.736,5.214-7.65,11.735-15.771,10.972
				c8.166-14.566-1.494-35.299-7.543-49.029c-9.787-22.219-21.541-41.384-36.342-59.657c-6.29-7.765-15.042-21.007-25.372-22.628
				c-2.241-0.352-5.119,0.272-6.857,0c1.744-7.269,13.644-7.992,21.6-8.571C259.311,120.307,283.552,136.925,296.229,153.343z"/>
		</g>
	</g>
</g>
</svg>
