<?xml version="1.0" encoding="utf-8"?>
<!-- Generator: Adobe Illustrator 14.0.0, SVG Export Plug-In . SVG Version: 6.00 Build 43363)  -->
<!DOCTYPE svg PUBLIC "-//W3C//DTD SVG 1.1//EN" "http://www.w3.org/Graphics/SVG/1.1/DTD/svg11.dtd">
<svg version="1.1" id="Layer_1" xmlns="http://www.w3.org/2000/svg" xmlns:xlink="http://www.w3.org/1999/xlink" x="0px" y="0px"
	 width="504px" height="504px" viewBox="0 0 504 504" enable-background="new 0 0 504 504" xml:space="preserve">
<g id="aGWg17_1_">
	<g>
		<g>
			<path fill-rule="evenodd" clip-rule="evenodd" d="M246.057,106.6c17.307-3.048,24.662,8.019,33.715,18.286
				c19.188,21.76,32.062,37.077,49.143,66.286c15.982,27.333,26.488,48.633,36.572,79.429c2.883,8.806,6.578,23.961,4,33.143
				c-3.963,14.108-20.58,23.239-34.287,28.571c-46.087,17.931-115.287,12.243-156.571-9.143
				c-12.083-6.259-26.708-18.682-30.857-33.143c-5.705-19.886-0.271-47.318,4-63.429c4.957-18.696,13.062-37.603,20-50.857
				c14.471-27.647,36.562-57.203,72.572-69.143C244.845,106.433,245.534,106.692,246.057,106.6z"/>
		</g>
	</g>
</g>
</svg>
